<svg xmlns="http://www.w3.org/2000/svg" fill="none" viewBox="0 0 512 512" id="Google-Gmail--Streamline-Svg-Logos" height="512" width="512">
  <desc>
    Google Gmail Streamline Icon: https://streamlinehq.com
  </desc>
  <path fill="#4285f4" d="M119.27253333333334 444.04853333333335V250.35146666666665L59.200533333333325 195.3936 5.333333333333333 164.89706666666666V409.8666666666666c0 18.9136 15.324853333333332 34.181866666666664 34.18181333333333 34.181866666666664H119.27253333333334Z" stroke-width="5.3333"></path>
  <path fill="#34a853" d="M392.7237333333333 444.04853333333335h79.75786666666666c18.914133333333332 0 34.181866666666664 -15.3248 34.181866666666664 -34.181866666666664V164.89706666666666l-61.01333333333333 34.9328 -52.9264 50.52159999999999v193.69706666666664Z" stroke-width="5.3333"></path>
  <path fill="#ea4335" d="m119.27306666666667 250.35146666666665 -8.173866666666665 -75.68426666666666 8.173866666666665 -72.43679999999999 136.72746666666666 102.54506666666666 136.7269333333333 -102.54506666666666 9.144533333333332 68.52586666666666 -9.144533333333332 79.59519999999999 -136.7269333333333 102.5456 -136.72746666666666 -102.5456Z" stroke-width="5.3333"></path>
  <path fill="#fbbc04" d="M392.7237333333333 102.23039999999999v148.12106666666665l113.93973333333334 -85.45439999999999v-45.576c0 -42.27146666666667 -48.25333333333333 -66.36959999999999 -82.03626666666666 -41.01813333333333l-31.903466666666667 23.927466666666664Z" stroke-width="5.3333"></path>
  <path fill="#c5221f" d="m5.333333333333333 164.89706666666666 52.40266666666666 39.30186666666667 61.53653333333333 46.15253333333334V102.23039999999999l-31.90293333333333 -23.927466666666664C53.529599999999995 52.95146666666666 5.333333333333333 77.0496 5.333333333333333 119.32106666666665v45.576Z" stroke-width="5.3333"></path>
</svg>