<svg xmlns="http://www.w3.org/2000/svg" fill="none" viewBox="0 0 24 24" id="Linkedin-Icon--Streamline-Svg-Logos" height="24" width="24">
  <desc>
    Linkedin Icon Streamline Icon: https://streamlinehq.com
  </desc>
  <path fill="#0a66c2" d="M20.273125 20.2735H16.79115V14.820475c0 -1.300325 -0.023225 -2.97425 -1.810975 -2.97425 -1.813525 0 -2.091 1.41675 -2.091 2.879575v5.547325H9.4072V9.0595h3.3427v1.532475h0.046775c0.6816 -1.165425 1.948925 -1.861475 3.298075 -1.8114 3.529125 0 4.179825 2.32135 4.179825 5.3413l-0.00145 6.151625ZM5.4784 7.526675c-1.115975 0.0002 -2.0208 -0.904325 -2.021 -2.0203 -0.0002 -1.116 0.9043 -2.02085 2.020275 -2.02105 1.11595 -0.0002 2.020775 0.904325 2.020975 2.020325 0.0001 0.5359 -0.2127 1.049925 -0.591575 1.428925 -0.378875 0.379025 -0.892775 0.592 -1.428675 0.5921Zm1.740975 12.746825H3.733775V9.0595h3.4856v11.214ZM22.009025 0.2517525H1.98409C1.0376725 0.24107175 0.26155 0.99919 0.25 1.94562V22.05405c0.011155 0.946875 0.787215 1.70575 1.73409 1.695825H22.009025c0.94875 0.01175 1.72785 -0.747075 1.740975 -1.695825V1.94417c-0.013525 -0.9483 -0.7927 -1.7063755 -1.740975 -1.69402" stroke-width="0.25"></path>
</svg>