<svg xmlns="http://www.w3.org/2000/svg" fill="none" viewBox="0 0 24 24" id="Google-Meet--Streamline-Svg-Logos" height="24" width="24">
  <desc>
    Google Meet Streamline Icon: https://streamlinehq.com
  </desc>
  <path fill="#00832d" d="m13.544075 12 2.2909 2.61865 3.080875 1.9686 0.535875 -4.5707 -0.535875 -4.4676 -3.13985 1.729275L13.544075 12Z" stroke-width="0.25"></path>
  <path fill="#0066da" d="M0.2501225 16.161825V20.05675c0 0.88935 0.7218175 1.61135 1.6113475 1.61135H5.756375l0.806525 -2.942825 -0.806525 -2.56345 -2.67215 -0.806525 -2.8341025 0.806525Z" stroke-width="0.25"></path>
  <path fill="#e94235" d="M5.75625 2.3319025 0.25 7.838175l2.83425 0.80465 2.672 -0.80465 0.791875 -2.5285L5.75625 2.3319025Z" stroke-width="0.25"></path>
  <path fill="#2684fc" d="M0.2501225 16.163625H5.756375V7.8381H0.2501225v8.325525Z" stroke-width="0.25"></path>
  <path fill="#00ac47" d="m22.43315 4.6633 -3.517375 2.88575v9.038125l3.53205 2.896975c0.5287 0.414175 1.30215 0.03665 1.30215 -0.6354V5.28575c0 -0.67955 -0.79185 -1.0552 -1.316825 -0.62245Z" stroke-width="0.25"></path>
  <path fill="#00ac47" d="M13.544 12v4.161825H5.756225v5.506275h11.548225c0.889525 0 1.61135 -0.722 1.61135 -1.61135V16.58725L13.544 12Z" stroke-width="0.25"></path>
  <path fill="#ffba00" d="M17.30445 2.3319025H5.756225V7.838175H13.544V12l5.3718 -4.451075V3.94325c0 -0.889525 -0.721825 -1.6113475 -1.61135 -1.6113475Z" stroke-width="0.25"></path>
</svg>