<svg xmlns="http://www.w3.org/2000/svg" viewBox="0 0 16 16" id="Upwork--Streamline-Font-Awesome" height="16" width="16">
  <desc>
    Upwork Streamline Icon: https://streamlinehq.com
  </desc>
<!--! Font Awesome Free 6.5.2 by @fontawesome - https://fontawesome.com License - https://fontawesome.com/license/free (Icons: CC BY 4.0, Fonts: SIL OFL 1.1, Code: MIT License) Copyright 2024 Fonticons, Inc.-->
  <path d="M12.258658346333855 8.959024024961c-1.2321572542901718 0 -2.045429017160686 -0.9529010920436819 -2.273243057722309 -1.3203419656786273 0.29150452418096723 -2.334484867394696 1.146421216848674 -3.0718202808112327 2.273243057722309 -3.0718202808112327 1.1145759750390016 0 1.9817410296411857 0.8916592823712948 1.9817410296411857 2.197306708268331s-0.8671650546021841 2.197306708268331 -1.9817410296411857 2.197306708268331Zm0 -5.825188143525741c-2.0062352574102964 0 -3.1306109204368178 1.3080960998439939 -3.4539581903276133 2.6553834633385334 -0.36499469578783156 -0.6858907956318253 -0.6344511700468018 -1.6044979719188766 -0.8451195007800312 -2.4569659906396257h-2.7729672386895476v3.4539606864274575c0 1.2517541341653666 -0.5707606864274571 2.1801609984399377 -1.6853366614664587 2.1801609984399377s-1.753924492979719 -0.9259556942277691 -1.753924492979719 -2.1801609984399377l0.01224836193447738 -3.4539606864274575H0.16v3.4539606864274575c0 1.006794383775351 0.32579843993759755 1.9205017160686428 0.9210558502340094 2.5745472698907954 0.6124056162246491 0.6736449297971919 1.4501741029641186 1.0239400936037442 2.4202209048361936 1.0239400936037442 1.9302989079563182 0 3.2775887675507023 -1.479568174726989 3.2775887675507023 -3.59848736349454v-2.3222365054602183c0.20086864274570984 0.7642808112324493 0.6809934477379095 2.231600624024961 1.5996006240249612 3.5176511700468023l-0.8573653666146646 4.884535413416537h1.6265435257410297l0.5658633385335413 -3.461309204368175c0.1861691107644306 0.15432636505460218 0.38458907956318256 0.2939556942277691 0.59280624024961 0.4164368174726989 0.5438152886115445 0.34294414976599064 1.1684692667706709 0.5364642745709829 1.8102689547581903 0.5585123244929797 0 0 0.09798439937597504 0.004899843993759751 0.14942652106084242 0.004899843993759751 1.9890895475819033 0 3.573990639625585 -1.540809984399376 3.573990639625585 -3.6205354134165364s-1.5873522620904836 -3.627883931357254 -3.5764418096723873 -3.627883931357254Z" fill="#000000" stroke-width="0.025"></path>
</svg>