<svg xmlns="http://www.w3.org/2000/svg" viewBox="0 0 16 16" id="Square-Upwork--Streamline-Font-Awesome" height="16" width="16">
  <desc>
    Square Upwork Streamline Icon: https://streamlinehq.com
  </desc>
<!--! Font Awesome Free 6.5.2 by @fontawesome - https://fontawesome.com License - https://fontawesome.com/license/free (Icons: CC BY 4.0, Fonts: SIL OFL 1.1, Code: MIT License) Copyright 2024 Fonticons, Inc.-->
  <path d="M2.1199999999999997 0.16h11.759999999999998c1.0815 0 1.96 0.8785 1.96 1.96v11.759999999999998c0 1.0815 -0.8785 1.96 -1.96 1.96H2.1199999999999997c-1.0815 0 -1.96 -0.8785 -1.96 -1.96V2.1199999999999997c0 -1.0815 0.8785 -1.96 1.96 -1.96Zm7.5215 8.476999999999999c0.23099999999999998 -1.8515 0.9065 -2.4324999999999997 1.799 -2.4324999999999997 0.8855 0 1.5715 0.707 1.5715 1.7395s-0.6895 1.7395 -1.5715 1.7395c-0.9764999999999999 0 -1.6205 -0.7525 -1.799 -1.0465Zm-0.9345 -1.4629999999999999c-0.287 -0.5425 -0.5005 -1.2705 -0.6719999999999999 -1.946h-2.2015v2.7335c0 0.994 -0.45149999999999996 1.7289999999999999 -1.337 1.7289999999999999s-1.3929999999999998 -0.7314999999999999 -1.3929999999999998 -1.7254999999999998l0.010499999999999999 -2.7335H1.847v2.7335c0 0.798 0.25899999999999995 1.5225 0.7314999999999999 2.037 0.4865 0.532 1.148 0.8119999999999999 1.918 0.8119999999999999 1.5294999999999999 0 2.5969999999999995 -1.1724999999999999 2.5969999999999995 -2.8525v-1.8375c0.161 0.6055 0.539 1.7675 1.267 2.7895l-0.6755 3.8675h1.288l0.448 -2.7439999999999998c0.147 0.1225 0.3045 0.23099999999999998 0.469 0.32899999999999996 0.4305 0.27299999999999996 0.9239999999999999 0.42699999999999994 1.4315 0.441h0.119c1.5785 0 2.8314999999999997 -1.2214999999999998 2.8314999999999997 -2.8665s-1.2565 -2.877 -2.8314999999999997 -2.877c-1.5889999999999997 0 -2.4815 1.0395 -2.7335 2.1035Z" fill="#000000" stroke-width="0.0357"></path>
</svg>